# xmcd
#
# Track frame offsets:
# 150
# 12190
# 26515
# 38685
# 50857
# 64337
# 77570
# 88222
# 102102
# 115802
#
# Disc length: 1674 seconds
#
# Revision: 2
# Processed by: cddbd v1.4PL0 Copyright (c) Steve Scherf et al.
# Submitted via: Axialis_AX_CDPlayer 2.6
#
DISCID=7a06880a
DTITLE=Dolly Parton - The Best Of Dolly Parton
DYEAR=1900
DGENRE=
TTITLE0=Jolene
TTITLE1=Lonely Comin' Down
TTITLE2=The Bargain Store
TTITLE3=Touch Your Woman
TTITLE4=When I Sing For Him
TTITLE5=I Will Always Love You
TTITLE6=Love Is Like A Butterfly
TTITLE7=Coat Of Many Colors
TTITLE8=My Tennessee Mountain Home
TTITLE9=Traveling Man
EXTD=
EXTT0=
EXTT1=
EXTT2=
EXTT3=
EXTT4=
EXTT5=
EXTT6=
EXTT7=
EXTT8=
EXTT9=
PLAYORDER=
